<svg width="1600" height="900" viewBox="0 0 1600 900" fill="none" xmlns="http://www.w3.org/2000/svg">
  <defs>
    <linearGradient id="bg" x1="140" y1="80" x2="1460" y2="820" gradientUnits="userSpaceOnUse">
      <stop stop-color="#050B16"/>
      <stop offset="1" stop-color="#0B1426"/>
    </linearGradient>

    <radialGradient id="ambient" cx="0" cy="0" r="1" gradientUnits="userSpaceOnUse" gradientTransform="translate(800 450) rotate(90) scale(420 420)">
      <stop stop-color="#25D9FF" stop-opacity="0.16"/>
      <stop offset="0.45" stop-color="#25D9FF" stop-opacity="0.07"/>
      <stop offset="1" stop-color="#25D9FF" stop-opacity="0"/>
    </radialGradient>

    <radialGradient id="coreAura" cx="0" cy="0" r="1" gradientUnits="userSpaceOnUse" gradientTransform="translate(800 450) rotate(90) scale(170 170)">
      <stop stop-color="#73F7FF" stop-opacity="0.38"/>
      <stop offset="1" stop-color="#73F7FF" stop-opacity="0"/>
    </radialGradient>

    <radialGradient id="nodeAura" cx="0" cy="0" r="1" gradientUnits="userSpaceOnUse" gradientTransform="translate(0 0) rotate(90) scale(90 90)">
      <stop stop-color="#47F1E7" stop-opacity="0.26"/>
      <stop offset="1" stop-color="#47F1E7" stop-opacity="0"/>
    </radialGradient>

    <filter id="blur32" x="-60%" y="-60%" width="220%" height="220%">
      <feGaussianBlur stdDeviation="32"/>
    </filter>

    <filter id="blur18" x="-60%" y="-60%" width="220%" height="220%">
      <feGaussianBlur stdDeviation="18"/>
    </filter>

    <filter id="blur8" x="-60%" y="-60%" width="220%" height="220%">
      <feGaussianBlur stdDeviation="8"/>
    </filter>

    <filter id="softGlow" x="-60%" y="-60%" width="220%" height="220%">
      <feGaussianBlur stdDeviation="10" result="b"/>
      <feMerge>
        <feMergeNode in="b"/>
        <feMergeNode in="SourceGraphic"/>
      </feMerge>
    </filter>

    <pattern id="grid" width="44" height="44" patternUnits="userSpaceOnUse">
      <path d="M44 0H0V44" stroke="#D8F7FF" stroke-opacity="0.06" stroke-width="1"/>
    </pattern>

    <linearGradient id="lineGrad" x1="450" y1="200" x2="1150" y2="700" gradientUnits="userSpaceOnUse">
      <stop stop-color="#6AF4FF" stop-opacity="0.12"/>
      <stop offset="0.5" stop-color="#6AF4FF" stop-opacity="0.34"/>
      <stop offset="1" stop-color="#6AF4FF" stop-opacity="0.12"/>
    </linearGradient>

    <linearGradient id="ringGrad" x1="620" y1="260" x2="980" y2="640" gradientUnits="userSpaceOnUse">
      <stop stop-color="#71F7FF" stop-opacity="0.18"/>
      <stop offset="0.5" stop-color="#71F7FF" stop-opacity="0.08"/>
      <stop offset="1" stop-color="#71F7FF" stop-opacity="0.18"/>
    </linearGradient>
  </defs>

  <!-- Background -->
  <rect width="1600" height="900" fill="url(#bg)"/>
  <rect width="1600" height="900" fill="url(#grid)"/>

  <!-- Large ambient glow -->
  <circle cx="800" cy="450" r="420" fill="url(#ambient)"/>

  <!-- Decorative distant particles -->
  <g opacity="0.72">
    <circle cx="132" cy="108" r="1.6" fill="#BDF8FF"/>
    <circle cx="210" cy="204" r="1.8" fill="#A4F2FF"/>
    <circle cx="356" cy="128" r="1.6" fill="#BDF8FF"/>
    <circle cx="520" cy="86" r="1.4" fill="#8BEFFF"/>
    <circle cx="690" cy="140" r="1.4" fill="#BDF8FF"/>
    <circle cx="910" cy="92" r="1.8" fill="#8BEFFF"/>
    <circle cx="1130" cy="126" r="1.4" fill="#BDF8FF"/>
    <circle cx="1288" cy="170" r="1.8" fill="#8BEFFF"/>
    <circle cx="1454" cy="108" r="1.5" fill="#BDF8FF"/>
    <circle cx="1490" cy="700" r="1.6" fill="#BDF8FF"/>
    <circle cx="1360" cy="778" r="1.7" fill="#8BEFFF"/>
    <circle cx="1120" cy="820" r="1.4" fill="#BDF8FF"/>
    <circle cx="960" cy="770" r="1.4" fill="#8BEFFF"/>
    <circle cx="260" cy="760" r="1.7" fill="#BDF8FF"/>
    <circle cx="160" cy="620" r="1.5" fill="#8BEFFF"/>
    <circle cx="110" cy="452" r="1.4" fill="#BDF8FF"/>
    <circle cx="1510" cy="440" r="1.6" fill="#BDF8FF"/>
  </g>

  <!-- Orbit rings -->
  <g>
    <circle cx="800" cy="450" r="280" stroke="url(#ringGrad)" stroke-width="1.5"/>
    <circle cx="800" cy="450" r="332" stroke="#85F7FF" stroke-opacity="0.08" stroke-width="1"/>
    <circle cx="800" cy="450" r="208" stroke="#85F7FF" stroke-opacity="0.07" stroke-width="1"/>
  </g>

  <!-- Curved connectors -->
  <g stroke="url(#lineGrad)" stroke-width="2.2" fill="none" filter="url(#blur8)">
    <path d="M800 450 C800 320 800 250 800 170"/>
    <path d="M800 450 C890 360 980 300 1040 250"/>
    <path d="M800 450 C950 450 1060 450 1140 450"/>
    <path d="M800 450 C900 540 980 620 1040 650"/>
    <path d="M800 450 C800 560 800 640 800 730"/>
    <path d="M800 450 C700 540 620 620 560 650"/>
    <path d="M800 450 C650 450 540 450 460 450"/>
    <path d="M800 450 C710 360 620 300 560 250"/>
  </g>

  <!-- Outer orbital links -->
  <g stroke="#8DF8FF" stroke-opacity="0.10" stroke-width="1.4" fill="none">
    <path d="M800 170 C930 175 1005 205 1040 250"/>
    <path d="M1040 250 C1095 300 1128 360 1140 450"/>
    <path d="M1140 450 C1128 540 1095 600 1040 650"/>
    <path d="M1040 650 C980 705 900 740 800 730"/>
    <path d="M800 730 C700 740 620 705 560 650"/>
    <path d="M560 650 C505 600 472 540 460 450"/>
    <path d="M460 450 C472 360 505 300 560 250"/>
    <path d="M560 250 C620 195 700 165 800 170"/>
  </g>

  <!-- Core back glow -->
  <circle cx="800" cy="450" r="150" fill="url(#coreAura)" filter="url(#blur32)"/>

  <!-- Core node -->
  <g filter="url(#softGlow)">
    <circle cx="800" cy="450" r="110" fill="#0D1A2C" stroke="#7CF7FF" stroke-width="3"/>
    <circle cx="800" cy="450" r="88" fill="none" stroke="#7CF7FF" stroke-opacity="0.22" stroke-width="1.6"/>
    <circle cx="800" cy="450" r="66" fill="none" stroke="#7CF7FF" stroke-opacity="0.12" stroke-width="1"/>
  </g>

  <text x="800" y="440" fill="white" font-size="32" font-family="Arial, Helvetica, sans-serif" text-anchor="middle" font-weight="700">QFT-Engine</text>
  <text x="800" y="476" fill="#A7DDEA" font-size="16" font-family="Arial, Helvetica, sans-serif" text-anchor="middle">verification stack</text>

  <!-- Reusable node style via grouping -->
  <!-- Top -->
  <g transform="translate(800 170)">
    <circle r="72" fill="#0D1A2C" stroke="#55EBFF" stroke-width="2.5"/>
    <circle r="98" fill="url(#nodeAura)"/>
    <circle r="79" fill="none" stroke="#7DF7FF" stroke-opacity="0.12" stroke-width="1"/>
    <text y="-7" fill="white" font-size="21" font-family="Arial, Helvetica, sans-serif" text-anchor="middle" font-weight="700">RGE</text>
    <text y="21" fill="#A7DDEA" font-size="12.5" font-family="Arial, Helvetica, sans-serif" text-anchor="middle">flow evolution</text>
  </g>

  <!-- Top right -->
  <g transform="translate(1040 250)">
    <circle r="72" fill="#0D1A2C" stroke="#55EBFF" stroke-width="2.5"/>
    <circle r="98" fill="url(#nodeAura)"/>
    <circle r="79" fill="none" stroke="#7DF7FF" stroke-opacity="0.12" stroke-width="1"/>
    <text y="-7" fill="white" font-size="20" font-family="Arial, Helvetica, sans-serif" text-anchor="middle" font-weight="700">Regge</text>
    <text y="21" fill="#A7DDEA" font-size="12.5" font-family="Arial, Helvetica, sans-serif" text-anchor="middle">trajectory solvers</text>
  </g>

  <!-- Right -->
  <g transform="translate(1140 450)">
    <circle r="72" fill="#0D1A2C" stroke="#55EBFF" stroke-width="2.5"/>
    <circle r="98" fill="url(#nodeAura)"/>
    <circle r="79" fill="none" stroke="#7DF7FF" stroke-opacity="0.12" stroke-width="1"/>
    <text y="-7" fill="white" font-size="19" font-family="Arial, Helvetica, sans-serif" text-anchor="middle" font-weight="700">Hessian</text>
    <text y="21" fill="#A7DDEA" font-size="12.5" font-family="Arial, Helvetica, sans-serif" text-anchor="middle">telemetry</text>
  </g>

  <!-- Bottom right -->
  <g transform="translate(1040 650)">
    <circle r="72" fill="#0D1A2C" stroke="#55EBFF" stroke-width="2.5"/>
    <circle r="98" fill="url(#nodeAura)"/>
    <circle r="79" fill="none" stroke="#7DF7FF" stroke-opacity="0.12" stroke-width="1"/>
    <text y="-7" fill="white" font-size="19" font-family="Arial, Helvetica, sans-serif" text-anchor="middle" font-weight="700">Mesh</text>
    <text y="21" fill="#A7DDEA" font-size="12.5" font-family="Arial, Helvetica, sans-serif" text-anchor="middle">topology layer</text>
  </g>

  <!-- Bottom -->
  <g transform="translate(800 730)">
    <circle r="72" fill="#0D1A2C" stroke="#55EBFF" stroke-width="2.5"/>
    <circle r="98" fill="url(#nodeAura)"/>
    <circle r="79" fill="none" stroke="#7DF7FF" stroke-opacity="0.12" stroke-width="1"/>
    <text y="-7" fill="white" font-size="18" font-family="Arial, Helvetica, sans-serif" text-anchor="middle" font-weight="700">Tolerance</text>
    <text y="21" fill="#A7DDEA" font-size="12.5" font-family="Arial, Helvetica, sans-serif" text-anchor="middle">governance</text>
  </g>

  <!-- Bottom left -->
  <g transform="translate(560 650)">
    <circle r="72" fill="#0D1A2C" stroke="#55EBFF" stroke-width="2.5"/>
    <circle r="98" fill="url(#nodeAura)"/>
    <circle r="79" fill="none" stroke="#7DF7FF" stroke-opacity="0.12" stroke-width="1"/>
    <text y="-7" fill="white" font-size="19" font-family="Arial, Helvetica, sans-serif" text-anchor="middle" font-weight="700">Tests</text>
    <text y="21" fill="#A7DDEA" font-size="12.5" font-family="Arial, Helvetica, sans-serif" text-anchor="middle">verification suite</text>
  </g>

  <!-- Left -->
  <g transform="translate(460 450)">
    <circle r="72" fill="#0D1A2C" stroke="#55EBFF" stroke-width="2.5"/>
    <circle r="98" fill="url(#nodeAura)"/>
    <circle r="79" fill="none" stroke="#7DF7FF" stroke-opacity="0.12" stroke-width="1"/>
    <text y="-7" fill="white" font-size="18" font-family="Arial, Helvetica, sans-serif" text-anchor="middle" font-weight="700">Schemas</text>
    <text y="21" fill="#A7DDEA" font-size="12.5" font-family="Arial, Helvetica, sans-serif" text-anchor="middle">proto / contracts</text>
  </g>

  <!-- Top left -->
  <g transform="translate(560 250)">
    <circle r="72" fill="#0D1A2C" stroke="#55EBFF" stroke-width="2.5"/>
    <circle r="98" fill="url(#nodeAura)"/>
    <circle r="79" fill="none" stroke="#7DF7FF" stroke-opacity="0.12" stroke-width="1"/>
    <text y="-7" fill="white" font-size="17" font-family="Arial, Helvetica, sans-serif" text-anchor="middle" font-weight="700">Bootstrap</text>
    <text y="21" fill="#A7DDEA" font-size="12.5" font-family="Arial, Helvetica, sans-serif" text-anchor="middle">spectral methods</text>
  </g>

  <!-- Tiny connection particles -->
  <g fill="#8FF8FF">
    <circle cx="800" cy="310" r="3.2"/>
    <circle cx="920" cy="340" r="3.2"/>
    <circle cx="995" cy="450" r="3.2"/>
    <circle cx="930" cy="585" r="3.2"/>
    <circle cx="800" cy="595" r="3.2"/>
    <circle cx="670" cy="585" r="3.2"/>
    <circle cx="605" cy="450" r="3.2"/>
    <circle cx="675" cy="340" r="3.2"/>
  </g>

  <!-- Header title -->
  <text x="108" y="104" fill="white" font-size="58" font-family="Arial, Helvetica, sans-serif" font-weight="700">QFT-Engine</text>
  <text x="108" y="147" fill="#95D7E8" font-size="23" font-family="Arial, Helvetica, sans-serif">
    High-performance verification framework for computational QFT workflows
  </text>

  <!-- Header accent line -->
  <line x1="108" y1="172" x2="620" y2="172" stroke="#6AF4FF" stroke-opacity="0.45" stroke-width="2"/>

  <!-- Bottom caption -->
  <text x="800" y="848" fill="#7CB4C6" font-size="16" font-family="Arial, Helvetica, sans-serif" text-anchor="middle">
    symbolic validation • solver orchestration • distributed execution • structured scientific outputs
  </text>
</svg>